<svg xmlns="http://www.w3.org/2000/svg" viewBox="0 0 287.38 173.27"><defs><style>.cls-1{fill:#ffe100;}</style></defs><g id="Layer_2" data-name="Layer 2"><g id="Layer_1-2" data-name="Layer 1"><path class="cls-1" d="M199,173a7.46,7.46,0,0,1-5.81-7.6c.24-3.34,2.36-5.66,4.63-7.91l42.41-42.38c5.77-5.76,11.56-11.51,17.31-17.3.77-.78,1.36-1.73,2.59-3.32h-248c-1.66,0-3.34.09-5-.07A7.74,7.74,0,0,1,6.34,79.1a35,35,0,0,1,6-.21H259.48c-.41-2.38-2.05-3.34-3.22-4.51q-28.93-29-57.92-58C196,14,193.59,11.7,193.15,8.17c-.74-5.88,6.69-10.08,11.37-7.29,6.67,4,12.37,11.73,17.84,17.19l20.1,20.1q20.1,20.1,40.26,40.14c6.5,6.44,5.92,10.93,0,16.79-23.19,22.91-46.14,46.07-69.25,69.08-2.75,2.74-5.65,7.16-9.6,8.59A8.16,8.16,0,0,1,199,173Z"/></g></g></svg>