<svg xmlns="http://www.w3.org/2000/svg" viewBox="0 0 245.56 51"><g id="Layer_2" data-name="Layer 2"><g id="Layer_1-2" data-name="Layer 1"><path d="M148.51,19.55l.4-2.24h6.48V49.79h-6.51l-.47-2.27c-7.27,4.12-14.61,4.76-21.57-.43-7.27-5.43-8.54-13.58-5.53-20.41C124.91,18.51,136.11,12.21,148.51,19.55Zm.1,13.8c0-5.3-4.81-10-10.38-10-5.75-.06-10.67,4.46-10.75,9.89a10.35,10.35,0,0,0,10.57,10.54A10.5,10.5,0,0,0,148.61,33.35Z"/><path d="M64.53,19.14l.59-2.2h6.36v32.5H64.91L64.55,47c-7.3,4.38-14.61,4.74-21.63-.34a16.8,16.8,0,0,1-5.49-20.43C41.25,17.74,52.69,12.06,64.53,19.14ZM54.27,22.93A10.28,10.28,0,0,0,43.62,32.8C43.5,38.61,47.91,43.08,54,43.29A10.5,10.5,0,0,0,64.69,33.13C64.81,27.68,60.07,23,54.27,22.93Z"/><path d="M165.65,33.78c0-9.43,7.94-17.21,17.65-17.27s17.87,7.7,17.95,17.21c.08,9.3-8,17.22-17.65,17.28S165.66,43.22,165.65,33.78Zm17.91-9.86c-5.4-.11-10.17,4.21-10.34,9.38a10.23,10.23,0,0,0,20.45.5C193.78,28.51,189.21,24,183.56,23.92Z"/><path d="M230.21,24.1h-7.42V17.74h15V43.68l7.78.4V50.3H222.68V43.92h7.53Z"/><path d="M7.19,49.09H0V.24C.76.14,1.24,0,1.72,0,3.46,0,5.2,0,7.19,0Z"/><path d="M83.84.54h7.22V49.38H83.84Z"/><path d="M22.44,16.79h9.9L17.84,32.93c4.69,5.32,9.28,10.51,14.29,16.2H22.34L8.44,32.89Z"/><path d="M116.08,49.6h-9.83L92.36,33.3l14-16.07h9.93L101.7,33.33Z"/><path d="M239.42,6.28c0,2.75-2.19,4.82-5.22,4.86a4.81,4.81,0,0,1-5-4.71,5.13,5.13,0,0,1,10.25-.15Z"/></g></g></svg>