<svg xmlns="http://www.w3.org/2000/svg" viewBox="0 0 92.03 104.22"><defs><style>.cls-1{fill:#e54e27;}.cls-2{fill:#fff;}</style></defs><g id="Layer_2" data-name="Layer 2"><g id="Layer_1-2" data-name="Layer 1"><path class="cls-1" d="M84.08,93.67l-6,1.69q-15.63,4.36-31.28,8.75a2.25,2.25,0,0,1-1.26,0l-37-10.36a2.64,2.64,0,0,1-.34-.17A28.29,28.29,0,0,1,7.76,90c-.35-3.67-.66-7.35-1-11-.37-4.31-.71-8.62-1.09-12.92S5,57.71,4.59,53.54C4.29,50,4,46.51,3.7,43q-.42-4.92-.86-9.84-.36-4.26-.73-8.54l-.9-10C1,11.9.76,9.22.53,6.53L0,.67C0,.51,0,.34,0,.19.74,0,90.48-.08,92,.11c.16.83-.71,11.34-1.44,18.64C90,25,89.47,31.2,88.94,37.43S87.86,50,87.32,56.21,86.24,68.67,85.71,74.9,84.63,87.35,84.08,93.67ZM58.82,68.88,46,72.41,33.33,68.89c-.23-3.09-.44-6.07-.66-9a106.74,106.74,0,0,0-11.92.07l1.53,17.52,23.83,6.59L69.82,77.5c.24-1.88,3.2-34.18,2.91-35H31.48l-.81-11.59H74c.32-3.92.71-7.73,1-11.56-2-.19-56.95-.09-57.7.11,1,11.54,2,23.09,3,34.77H59.84C59.5,59.19,59.16,64,58.82,68.88Z"/><path class="cls-2" d="M58.82,68.88c.34-4.89.68-9.69,1-14.63H20.26c-1-11.68-2-23.23-3-34.77.75-.2,55.69-.3,57.7-.11-.27,3.83-.66,7.64-1,11.56H30.67l.81,11.59H72.73c.29.8-2.67,33.1-2.91,35L46.11,84.05,22.28,77.46,20.75,59.94a106.74,106.74,0,0,1,11.92-.07c.22,3,.43,5.93.66,9L46,72.41Z"/></g></g></svg>