<svg xmlns="http://www.w3.org/2000/svg" viewBox="0 0 92.03 104.06"><defs><style>.cls-1{fill:#016eba;}.cls-2{fill:#fff;}</style></defs><g id="Layer_2" data-name="Layer 2"><g id="Layer_1-2" data-name="Layer 1"><path class="cls-1" d="M.09,0H92c0,.63,0,1.26,0,1.87q-.78,9.2-1.58,18.39t-1.6,18.49Q88,48,87.22,57.24q-.7,8.1-1.4,16.2c-.47,5.33-.91,10.67-1.4,16A34.76,34.76,0,0,1,84,93.55l-5.75,1.61q-15.66,4.38-31.32,8.76a2.76,2.76,0,0,1-1.56,0L8.46,93.64a2.15,2.15,0,0,1-.32-.13,35.06,35.06,0,0,1-.43-4.12c-.34-3.58-.64-7.16-1-10.73s-.57-6.9-.87-10.34-.63-7-.93-10.54c-.23-2.58-.44-5.17-.67-7.75L3.36,39.3l-.87-10q-.44-5.18-.88-10.34c-.21-2.52-.45-5-.66-7.55Q.49,6,0,.63A.83.83,0,0,1,.09,0Zm41,30.74.09.22L19.28,41.9a105.62,105.62,0,0,0,1.16,12.23H59.82c-.35,4.93-.68,9.75-1,14.61L46,72.27,33.32,68.76c-.22-3.07-.44-6.07-.66-9.05H20.72c.52,5.91,1,11.76,1.54,17.6l.57.18Q34,80.58,45.14,83.67a3.41,3.41,0,0,0,2,0C53.4,81.91,59.71,80.18,66,78.43l3.86-1.09c1-11.64,2-23.23,3-34.92H51.08l0-.18L73.94,30.8q.51-5.76,1-11.58H17.2c.34,3.88.67,7.68,1,11.52Z"/><path class="cls-2" d="M41.07,30.74H18.2c-.33-3.84-.66-7.64-1-11.52H75q-.51,5.82-1,11.58L51,42.24l0,.18H72.93c-1,11.69-2,23.28-3,34.92L66,78.43c-6.32,1.75-12.63,3.48-18.94,5.24a3.41,3.41,0,0,1-2,0Q34,80.57,22.83,77.49l-.57-.18c-.51-5.84-1-11.69-1.54-17.6H32.66c.22,3,.44,6,.66,9.05L46,72.27l12.76-3.53c.35-4.86.68-9.68,1-14.61H20.44A105.62,105.62,0,0,1,19.28,41.9L41.16,31Z"/></g></g></svg>