<svg xmlns="http://www.w3.org/2000/svg" viewBox="0 0 92.12 103.97"><defs><style>.cls-1{fill:#e9ca33;}.cls-2{fill:#fff;}</style></defs><g id="Layer_2" data-name="Layer 2"><g id="Layer_1-2" data-name="Layer 1"><path class="cls-1" d="M.06.16c.73-.19,91-.22,92,0A5.14,5.14,0,0,1,92,1.8c-.37,4.24-.77,8.48-1.14,12.71-.23,2.68-.43,5.37-.66,8-.3,3.48-.63,7-.93,10.43-.22,2.55-.42,5.1-.64,7.65-.25,2.81-.51,5.62-.75,8.43-.15,1.73-.29,3.45-.44,5.17-.25,2.88-.51,5.76-.76,8.64-.22,2.58-.43,5.17-.65,7.75-.24,2.78-.5,5.56-.74,8.34-.16,1.79-.3,3.58-.45,5.36-.26,3.08-.54,6.16-.8,9.22a6.77,6.77,0,0,1-1.84.62c-11.13,3.12-22.27,6.2-33.39,9.37a9.18,9.18,0,0,1-5.32.07C31.9,100.29,20.25,97.06,8.6,93.8a.79.79,0,0,1-.44-.23A18.11,18.11,0,0,1,7.76,90c-.28-2.71-.45-5.43-.69-8.15-.29-3.41-.62-6.81-.92-10.22-.24-2.72-.44-5.44-.67-8.15S5,58.22,4.76,55.57c-.17-1.85-.31-3.71-.47-5.57-.23-2.71-.48-5.42-.72-8.14C3.41,40,3.26,38.09,3.1,36.2c-.24-2.71-.49-5.43-.73-8.14-.16-1.79-.3-3.58-.45-5.36-.25-2.89-.51-5.77-.76-8.65-.22-2.48-.42-5-.63-7.44-.17-2-.33-4-.5-6A.67.67,0,0,1,.06.16ZM49.7,58.7l8.19-1.26c2.7-.41,5.39-.94,8.21-1.23-.48,4.45-.94,8.73-1.41,13l-15,4.16V84l23.73-6.56c1-11,2-21.87,3-32.86L59.72,47.1V38.25c0-1.5,0-3,0-4.49s0-2.9,0-4.41H77.6c.31-3.4.67-6.68.87-10-1.82-.2-28-.13-28.77.07ZM42.44,84V19.36h-10v51.3L14.74,65.85v10.6Z"/><path class="cls-2" d="M49.7,58.7V19.46c.72-.2,27-.27,28.77-.07-.2,3.28-.56,6.56-.87,10H59.76c-.09,1.51,0,3,0,4.41s0,3,0,4.49V47.1l16.73-2.52c-1,11-2,21.86-3,32.86L49.69,84V73.41l15-4.16c.47-4.31.93-8.59,1.41-13-2.82.29-5.51.82-8.21,1.23Z"/><path class="cls-2" d="M42.44,84l-27.7-7.55V65.85l17.67,4.81V19.36h10Z"/></g></g></svg>