<svg xmlns="http://www.w3.org/2000/svg" viewBox="0 0 45.58 44.44"><defs><style>.cls-1{fill:#470137;}.cls-2{fill:#ff61f6;}</style></defs><g id="Layer_2" data-name="Layer 2"><g id="Layer_1-2" data-name="Layer 1"><g id="Layer_2-2" data-name="Layer 2"><g id="Surfaces"><g id="UI_UX_Surface" data-name="UI UX Surface"><g id="Outline_no_shadow" data-name="Outline no shadow"><g id="Group_175492" data-name="Group 175492"><path id="Path_104683" data-name="Path 104683" class="cls-1" d="M9.81,0h26a9.81,9.81,0,0,1,9.81,9.81V34.63a9.82,9.82,0,0,1-9.81,9.81h-26A9.81,9.81,0,0,1,0,34.63V9.81A9.81,9.81,0,0,1,9.81,0Z"/></g></g></g></g><g id="Outlined_Mnemonics_Logos" data-name="Outlined Mnemonics Logos"><g id="Xd"><g id="Group_175493" data-name="Group 175493"><path id="Path_104674" data-name="Path 104674" class="cls-2" d="M24,11.69l-5.69,9.38,6.09,10a.45.45,0,0,1,0,.23c0,.07-.1,0-.22.05H19.83c-.3,0-.52,0-.64-.22L18,28.73c-.41-.78-.84-1.58-1.3-2.4s-.91-1.64-1.36-2.48h0c-.41.82-.83,1.63-1.27,2.45l-1.3,2.43c-.43.81-.87,1.61-1.31,2.4-.09.18-.23.2-.43.2H6.78c-.08,0-.13,0-.14,0a.31.31,0,0,1,.05-.21l5.9-9.69L6.83,11.65c-.06-.08-.07-.14,0-.2A.23.23,0,0,1,7,11.38H11.3a.61.61,0,0,1,.27,0,.52.52,0,0,1,.19.17c.36.82.77,1.63,1.22,2.45s.9,1.62,1.36,2.41.88,1.6,1.27,2.42h0c.41-.84.82-1.65,1.24-2.45s.84-1.6,1.28-2.4.86-1.6,1.27-2.4a.51.51,0,0,1,.12-.2.43.43,0,0,1,.25,0h4a.17.17,0,0,1,.21.12h0a.17.17,0,0,1-.06.18Z"/></g><g id="Group_175494" data-name="Group 175494"><path id="Path_104675" data-name="Path 104675" class="cls-2" d="M32.73,31.71a9.58,9.58,0,0,1-4.08-.85,6.58,6.58,0,0,1-2.86-2.59,8.37,8.37,0,0,1-1-4.32,8,8,0,0,1,1-4,7.65,7.65,0,0,1,3-2.94,9.76,9.76,0,0,1,4.8-1.1l.4,0,.58,0v-6c0-.14.06-.21.19-.21h3.85a.16.16,0,0,1,.18.14h0V28c0,.35,0,.73,0,1.13s.05.78.07,1.1a.32.32,0,0,1-.18.31,15,15,0,0,1-3.09.91A16.09,16.09,0,0,1,32.73,31.71Zm1.87-3.79V19.57a4,4,0,0,0-.5-.09q-.32,0-.63,0a4.69,4.69,0,0,0-2.14.49,4,4,0,0,0-2.23,3.82,5.46,5.46,0,0,0,.33,2,3.64,3.64,0,0,0,.85,1.34,3.22,3.22,0,0,0,1.29.77,5,5,0,0,0,1.57.24c.29,0,.55,0,.8,0a3.06,3.06,0,0,0,.66-.12Z"/></g></g></g></g></g></g></svg>