                <svg width="40" height="40" viewBox="0 0 40 40" fill="none" xmlns="http://www.w3.org/2000/svg">
                    <g clip-path="url(#clip0_101_88)">
                    <path d="M19.9999 39.35C30.6866 39.35 39.3499 30.6867 39.3499 20C39.3499 9.31331 30.6866 0.650024 19.9999 0.650024C9.31319 0.650024 0.649902 9.31331 0.649902 20C0.649902 30.6867 9.31319 39.35 19.9999 39.35Z" fill="var(--color-background)" stroke="var(--color-text)"/>
                    <path d="M20.0599 0.130005C19.8499 0.590005 20.1099 40.13 20.0599 40C14.8501 39.8833 9.89301 37.7318 6.2497 34.006C2.6064 30.2801 0.566406 25.2761 0.566406 20.065C0.566406 14.8539 2.6064 9.84988 6.2497 6.12406C9.89301 2.39823 14.8501 0.246696 20.0599 0.130005V0.130005Z" fill="var(--color-text)"/>
                    </g>
                    <defs>
                    <clipPath id="clip0_101_88">
                    <rect width="40" height="40" fill="white"/>
                    </clipPath>
                    </defs>
                </svg>                    

