<svg xmlns="http://www.w3.org/2000/svg" viewBox="0 0 499.26 453.65"><defs><style>.cls-1{fill:#a9cbdb;}.cls-2{fill:#14c38e;}.cls-3{fill:#e3fcbf;}.cls-4{fill:#cee2a6;}.cls-5{fill:#a1ce99;}.cls-6{fill:#b8f1b0;}.cls-7{fill:#70c0c4;}.cls-8{fill:#28a57c;}.cls-9{fill:#d33239;}.cls-10{fill:#e8e6d1;}.cls-11{fill:#3de8aa;}.cls-12{fill:#fff;}</style></defs><g id="Layer_2" data-name="Layer 2"><g id="Layer_1-2" data-name="Layer 1"><path class="cls-1" d="M52.44.71c-4.66,5.46-3.76,9.2,2.92,11.83,23.46,9.24,40.8,25.77,54.94,46.07,2.33,3.35,5,6.15,9.17,3.53,4.47-2.78,3.43-6.4.83-10.2C104.24,28.42,83.57,10.57,56.88,0Z"/><path class="cls-2" d="M256.26,152c-16.85,9-30.85,21.51-42.95,36.14-19.35,23.4-31.37,50.15-35.42,80.37-.6,14.35,2.64,28.08,6.78,41.66a6.56,6.56,0,0,0,1.17,2.31,1.62,1.62,0,0,0,1,.53c1.52-.17,2.32-1.35,3.25-2.34a283.19,283.19,0,0,1,66-52.21c33.22-19,68.84-30.59,107.13-33.49,2.55-.19,5.26.23,7.63-1.22,1.08-1.54,1-3.3.88-5a25.21,25.21,0,0,1,9.21-22.09c1-.87,2.26-1.61,2.42-3.15-.36-2.63-2.42-4-4.21-5.5-20.64-17.39-44.3-28.48-70.67-34a188.94,188.94,0,0,0-44.2-3.45C261.57,150.64,258.79,150.7,256.26,152Z"/><path class="cls-3" d="M256.26,152c29.85-1.76,58.84,1.63,86.34,14.22a149.13,149.13,0,0,1,40.82,27.17c.59,1.38,1.72.78,2.52.49,10.71-3.83,20.48-1,30,4.08,1.61.85,3.12,2.15,5.18,1.44a5.52,5.52,0,0,0,2.31-2.82c5.64-12.9,5.49-26,1.58-39.31a9,9,0,0,0-2.05-3.07c-25.21-16.33-53.05-24.08-82.87-24.63a157.61,157.61,0,0,0-80.78,20.33A34.14,34.14,0,0,0,256.26,152Z"/><path class="cls-4" d="M288,445.38c34.08,11.42,68.19,10.85,102-.65a156.12,156.12,0,0,0,75.34-54.12.85.85,0,0,1,.33-.86l-.06.06c2.95-5.94,2.95-12.52,3.91-18.85a39.84,39.84,0,0,0,.42-12.24c-2.15-3-3.24-.06-4.1,1a163.15,163.15,0,0,1-11.91,13.41c-22.55,22.7-49.33,37.72-80.63,44.47a144.91,144.91,0,0,1-45.64,2.85,51.48,51.48,0,0,0-7.45-.33,4.68,4.68,0,0,0-1.11.24c-6.66,5-12.82,10.65-19.65,15.45-3,2.15-6.16,4.23-9.12,6.51C289.31,443.13,287.8,443.62,288,445.38Z"/><path class="cls-2" d="M499.1,289a149.89,149.89,0,0,0-14.69-64.75c-3.86-3.73-8.88-5.07-13.84-6-8.31-1.62-16.74-2.47-25.16-.4-2.05.5-4.15.89-5.79,2.4-1.17,1.74-.24,3.35.38,4.95,3.93,10.05,5.61,20.14.66,30.39a5.76,5.76,0,0,0-.5,3.28c.32,1.8,1.54,3.11,2.49,4.56,16.44,25,24.56,52.64,25.52,82.51.12,3.68-.55,7.47.85,11.07,1.82.59,2.41-1,3.11-2,12.8-18.39,22.18-38.28,26.48-60.41C499,292.71,498.86,290.82,499.1,289Z"/><path class="cls-5" d="M288,445.38c10.58-7.84,21.58-15.14,31.19-24.23-1.48-1.86-3.73-1.89-5.74-2.22-32.46-5.27-60.53-19.4-84.32-42a161.79,161.79,0,0,1-39.93-60.33c-.53-1.37-.78-2.93-2.09-3.89l-.65.1a16.78,16.78,0,0,0-7.47,8.52c4.87,28.62,17.23,53.69,36,75.66a158,158,0,0,0,69.8,47.6C285.79,444.91,286.89,445.1,288,445.38Z"/><path class="cls-6" d="M439.54,220.6c15.47-5.2,30.33-2.77,44.87,3.61-10.61-24.7-27.22-44.66-48.23-61.09-4.18-3.27-8.81-6-13.24-8.93,4.74,15.27,5.51,30.35-2.15,45-.37,1.73,1,2.47,2,3.27a60.54,60.54,0,0,1,13.75,15.66C437.24,219.25,437.8,220.7,439.54,220.6Z"/><path class="cls-7" d="M48.25,68.14c-3.93-.7-6.54.55-7.6,3.84-1.27,4,.92,6.39,4.46,7.81a185.38,185.38,0,0,1,41.51,22.76c20.16,14.87,36.89,32.71,47.79,55.54,1.64,3.44,4.48,4.87,8,3.23,3.92-1.83,4.37-5.11,2.62-8.82-11.87-25.25-30.38-44.79-52.83-60.88A196.77,196.77,0,0,0,48.25,68.14Z"/><path class="cls-8" d="M499.1,289c-2.65,9.77-4.67,19.71-8.42,29.17A173.33,173.33,0,0,1,469.37,357a.56.56,0,0,0-.31.76c.16,10.84-2.25,21.4-3.44,32.1,12.49-14.58,20.52-31.58,26.28-49.68C497.18,323.54,500,306.48,499.1,289Z"/><path class="cls-1" d="M142.6,93.83c-2.47-5.4-5.12-11.81-8.31-18-1.5-2.9-4.6-3.33-7.5-1.85s-4.06,4.22-2.88,7.24c2.34,6,4.89,11.9,7.6,17.74,1.38,3,4.11,4,7.22,3C142,100.85,143.14,98.23,142.6,93.83Z"/><path class="cls-7" d="M13.77,57.45C8.55,57.14,1.8,52.84.2,61c-1.53,7.8,6.06,6.81,10.71,8.18q5.19,1.53,10.48,2.71c3.86.87,6.84-.46,7.71-4.44.82-3.73-1.09-6.17-4.81-7.15S17.09,58.36,13.77,57.45Z"/><path class="cls-8" d="M179,321.29l7.47-8.52c-4.62-14.41-6.87-29.29-8.54-44.27A142.65,142.65,0,0,0,179,321.29Z"/><path class="cls-9" d="M465.68,389.75l-.33.86Z"/><path class="cls-6" d="M187.08,312.67A131.68,131.68,0,0,0,205.79,351c23,33.24,53.8,55.65,93,66,6.69,1.76,13.56,2.8,20.34,4.17l.66,0c5.13-2.75,9.16-6.9,13.23-10.89,27-26.43,48.13-56.91,62.44-92a231.6,231.6,0,0,0,14-48.11,5.18,5.18,0,0,0-.05-3.3c-3.31-2.72-7.54-3.68-11.12-5.95a57.7,57.7,0,0,1-25.17-32.69c-.49-1.59-.35-3.56-2.25-4.46-25.09.4-49.26,5.71-72.75,14.16-42.88,15.44-79.41,40.51-110.38,73.88A8.23,8.23,0,0,0,187.08,312.67Z"/><path class="cls-10" d="M370.86,223.73c5.16,21.11,17.49,35.85,38.19,43.17,1.47,2.47,4.16,2.13,6.35,2.4,8.36,1,16.05-.68,22.48-6.51a8.25,8.25,0,0,0,2.9-4.23c6.7-12.89,4.21-25.47-1.24-38a85.7,85.7,0,0,0-18.75-21.38c-9.11-4.86-18.24-9.78-29.15-7.93-2.78.47-5.48,1.38-8.22,2.09C372.1,200.53,369.28,211.22,370.86,223.73Z"/><path class="cls-11" d="M208.93,251.07c3.68.51,5.37-1.82,6.55-4.56,8.64-20,20.26-37.93,36.76-52.46,2.84-2.5,2.91-5.91.21-8.63-2.87-2.87-6.08-2.35-9,.3A154.78,154.78,0,0,0,207,236.21a49.81,49.81,0,0,0-3.1,7.19C202.7,247.73,204.64,250.28,208.93,251.07Z"/><path class="cls-11" d="M268.49,181.21c3.59-.41,5.9-2.58,6-6.23a5.82,5.82,0,0,0-6-6.31,5.93,5.93,0,0,0-6.29,5.75C262,178.18,264.34,180.64,268.49,181.21Z"/><path class="cls-3" d="M440.78,258.56c-8.76,9.74-19.48,11.95-31.73,8.34-10.79,59.83-40.11,109.15-84.62,149.86-1.56,1.43-3.07,2.9-4.61,4.35,28.48,3.15,56.1-.18,82.55-11.47a161.76,161.76,0,0,0,64.7-49.77c.6-.77,1.33-1.44,2-2.16l.31-.76C470.29,321.11,461.51,288.09,440.78,258.56Z"/><path class="cls-3" d="M371.9,290.66c-2.08,0-4.07,1.47-5.08,4.2a205.58,205.58,0,0,1-31.47,56.61c-2.61,3.34-1.93,6.35,1.25,8.73s5.79,1.39,8.11-1.47c14.6-18,25.37-38.12,33.43-59.76C379.71,294.74,377.07,290.87,371.9,290.66Z"/><path class="cls-3" d="M326.21,366.59c-5.29-.38-7.55,2.15-7.65,5.62a5.8,5.8,0,0,0,6,6.3c3.88.13,6.22-1.89,6.4-5.75S328.74,366.93,326.21,366.59Z"/><path class="cls-12" d="M401.78,215c-.66,11.2,11.52,23.4,22.56,22.59,5.34-.39,9.1-5.65,8-11.73-1.8-10-7.57-16.83-17.28-20C407.45,203.41,402.26,207.09,401.78,215Z"/></g></g></svg>